<mxfile host="65bd71144e">
    <diagram id="u-0fTAEMbGMZVPozM6vU" name="Page-1">
        <mxGraphModel dx="1269" dy="807" grid="1" gridSize="5" guides="1" tooltips="1" connect="1" arrows="1" fold="1" page="1" pageScale="1" pageWidth="827" pageHeight="583" background="#ffffff" math="1" shadow="0">
            <root>
                <mxCell id="0"/>
                <mxCell id="86" value="PageFrame (invisible)" style="locked=1;" parent="0"/>
                <mxCell id="88" value="" style="rounded=0;whiteSpace=wrap;html=1;labelBackgroundColor=default;fillColor=none;strokeColor=none;" vertex="1" parent="86">
                    <mxGeometry y="55" width="815" height="470" as="geometry"/>
                </mxCell>
                <mxCell id="87" value="DiagramFrame" style="locked=1;" parent="0"/>
                <mxCell id="85" value="[bd] «system» WePosture and neighbor system" style="shape=umlFrame;whiteSpace=wrap;html=1;width=280;height=30;boundedLbl=1;verticalAlign=middle;align=left;spacingLeft=5;labelBackgroundColor=default;fillColor=none;" vertex="1" parent="87">
                    <mxGeometry x="10" y="65" width="795" height="450" as="geometry"/>
                </mxCell>
                <mxCell id="1" value="SystemBoundary" style="locked=1;" parent="0"/>
                <mxCell id="48" value="«system»&lt;br&gt;WePosture" style="rounded=0;whiteSpace=wrap;html=1;labelBackgroundColor=none;fillColor=#B3B3B3;align=left;verticalAlign=top;" vertex="1" parent="1">
                    <mxGeometry x="425" y="85" width="355" height="350" as="geometry"/>
                </mxCell>
                <mxCell id="57" value="Components" style="locked=1;" parent="0"/>
                <mxCell id="4" style="edgeStyle=orthogonalEdgeStyle;html=1;endArrow=box;endFill=0;startArrow=none;startFill=0;rounded=0;entryX=1;entryY=0.5;entryDx=0;entryDy=0;exitX=-0.003;exitY=0.241;exitDx=0;exitDy=0;exitPerimeter=0;" edge="1" parent="57" source="48" target="3">
                    <mxGeometry relative="1" as="geometry">
                        <mxPoint x="405" y="135" as="sourcePoint"/>
                    </mxGeometry>
                </mxCell>
                <mxCell id="13" value="«slave»" style="edgeLabel;html=1;align=left;verticalAlign=middle;resizable=0;points=[];labelBackgroundColor=none;" vertex="1" connectable="0" parent="4">
                    <mxGeometry x="-0.9033" y="3" relative="1" as="geometry">
                        <mxPoint x="-43" y="8" as="offset"/>
                    </mxGeometry>
                </mxCell>
                <mxCell id="14" value="«host»" style="edgeLabel;html=1;align=left;verticalAlign=middle;resizable=0;points=[];labelBackgroundColor=none;" vertex="1" connectable="0" parent="4">
                    <mxGeometry x="0.9146" relative="1" as="geometry">
                        <mxPoint x="-5" y="10" as="offset"/>
                    </mxGeometry>
                </mxCell>
                <mxCell id="21" value="Serial over&lt;br&gt;USB" style="edgeLabel;html=1;align=center;verticalAlign=middle;resizable=0;points=[];labelBackgroundColor=none;" vertex="1" connectable="0" parent="4">
                    <mxGeometry x="0.12" relative="1" as="geometry">
                        <mxPoint x="1" as="offset"/>
                    </mxGeometry>
                </mxCell>
                <mxCell id="40" style="edgeStyle=orthogonalEdgeStyle;rounded=0;html=1;entryX=0.5;entryY=0;entryDx=0;entryDy=0;startArrow=box;startFill=0;endArrow=box;endFill=0;labelBackgroundColor=default;" edge="1" parent="57" source="2" target="39">
                    <mxGeometry relative="1" as="geometry"/>
                </mxCell>
                <mxCell id="47" value="9 pins at 40-pin-header" style="edgeLabel;html=1;align=center;verticalAlign=middle;resizable=0;points=[];labelBackgroundColor=default;" vertex="1" connectable="0" parent="40">
                    <mxGeometry x="-0.219" relative="1" as="geometry">
                        <mxPoint x="67" y="6" as="offset"/>
                    </mxGeometry>
                </mxCell>
                <mxCell id="74" style="edgeStyle=orthogonalEdgeStyle;rounded=0;jumpStyle=arc;html=1;exitX=0;exitY=0.5;exitDx=0;exitDy=0;entryX=-0.001;entryY=0.24;entryDx=0;entryDy=0;entryPerimeter=0;startArrow=box;startFill=0;endArrow=box;endFill=0;labelBackgroundColor=default;" edge="1" parent="57" source="2" target="48">
                    <mxGeometry relative="1" as="geometry">
                        <Array as="points">
                            <mxPoint x="495" y="142"/>
                            <mxPoint x="495" y="169"/>
                        </Array>
                    </mxGeometry>
                </mxCell>
                <mxCell id="2" value="«comp»&lt;br&gt;«µC»&lt;br&gt;RPI Zero 2W" style="rounded=0;whiteSpace=wrap;html=1;fillColor=default;labelBackgroundColor=default;" vertex="1" parent="57">
                    <mxGeometry x="538" y="115" width="120" height="55" as="geometry"/>
                </mxCell>
                <mxCell id="3" value="«neighbor»&lt;br&gt;«µC»&lt;br&gt;RPI 5" style="rounded=0;whiteSpace=wrap;html=1;fillColor=none;" vertex="1" parent="57">
                    <mxGeometry x="195" y="130" width="95" height="80" as="geometry"/>
                </mxCell>
                <mxCell id="55" style="edgeStyle=orthogonalEdgeStyle;rounded=0;html=1;startArrow=none;startFill=0;endArrow=none;endFill=0;entryX=0;entryY=0.25;entryDx=0;entryDy=0;" edge="1" parent="57" source="7" target="3">
                    <mxGeometry relative="1" as="geometry"/>
                </mxCell>
                <mxCell id="7" value="Monitor" style="rounded=0;whiteSpace=wrap;html=1;fillColor=none;" vertex="1" parent="57">
                    <mxGeometry x="120" y="140" width="60" height="20" as="geometry"/>
                </mxCell>
                <mxCell id="54" style="edgeStyle=orthogonalEdgeStyle;rounded=0;html=1;entryX=0;entryY=0.5;entryDx=0;entryDy=0;startArrow=none;startFill=0;endArrow=none;endFill=0;exitX=0.75;exitY=0.1;exitDx=0;exitDy=0;exitPerimeter=0;" edge="1" parent="57" source="12" target="7">
                    <mxGeometry relative="1" as="geometry"/>
                </mxCell>
                <mxCell id="59" style="edgeStyle=orthogonalEdgeStyle;rounded=0;html=1;exitX=1;exitY=1;exitDx=0;exitDy=0;exitPerimeter=0;startArrow=box;startFill=0;endArrow=none;endFill=0;entryX=0.5;entryY=1;entryDx=0;entryDy=0;jumpStyle=arc;" edge="1" parent="57" source="12" target="63">
                    <mxGeometry relative="1" as="geometry">
                        <mxPoint x="49.833333333333485" y="290" as="targetPoint"/>
                        <Array as="points">
                            <mxPoint x="85" y="490"/>
                            <mxPoint x="697" y="490"/>
                        </Array>
                    </mxGeometry>
                </mxCell>
                <mxCell id="61" value="right" style="edgeLabel;html=1;align=left;verticalAlign=middle;resizable=0;points=[];labelBackgroundColor=none;" vertex="1" connectable="0" parent="59">
                    <mxGeometry x="-0.6886" relative="1" as="geometry">
                        <mxPoint x="10" y="-127" as="offset"/>
                    </mxGeometry>
                </mxCell>
                <mxCell id="60" style="edgeStyle=orthogonalEdgeStyle;rounded=0;html=1;exitX=0;exitY=1;exitDx=0;exitDy=0;exitPerimeter=0;startArrow=box;startFill=0;endArrow=none;endFill=0;entryX=0.5;entryY=1;entryDx=0;entryDy=0;jumpStyle=arc;" edge="1" parent="57" source="12" target="56">
                    <mxGeometry relative="1" as="geometry">
                        <mxPoint y="265" as="targetPoint"/>
                    </mxGeometry>
                </mxCell>
                <mxCell id="62" value="left" style="edgeLabel;html=1;align=right;verticalAlign=middle;resizable=0;points=[];" vertex="1" connectable="0" parent="60">
                    <mxGeometry x="-0.5903" relative="1" as="geometry">
                        <mxPoint x="-5" y="-131" as="offset"/>
                    </mxGeometry>
                </mxCell>
                <mxCell id="12" value="«actor»&lt;br&gt;user" style="shape=umlActor;verticalLabelPosition=top;verticalAlign=bottom;html=1;outlineConnect=0;fillColor=none;labelPosition=center;align=center;" vertex="1" parent="57">
                    <mxGeometry x="40" y="145" width="45" height="65" as="geometry"/>
                </mxCell>
                <mxCell id="33" style="edgeStyle=orthogonalEdgeStyle;rounded=0;html=1;entryX=0.5;entryY=0;entryDx=0;entryDy=0;startArrow=box;startFill=0;endArrow=box;endFill=0;labelBackgroundColor=default;" edge="1" parent="57" source="15" target="27">
                    <mxGeometry relative="1" as="geometry"/>
                </mxCell>
                <mxCell id="41" style="edgeStyle=elbowEdgeStyle;rounded=0;html=1;startArrow=box;startFill=0;endArrow=box;endFill=0;entryX=0.07;entryY=1;entryDx=0;entryDy=0;entryPerimeter=0;labelBackgroundColor=default;" edge="1" parent="57" source="15" target="39">
                    <mxGeometry relative="1" as="geometry">
                        <mxPoint x="455.5" y="224.99999999999997" as="targetPoint"/>
                    </mxGeometry>
                </mxCell>
                <mxCell id="15" value="«comp»&lt;br&gt;HX711" style="rounded=0;whiteSpace=wrap;html=1;fillColor=default;labelBackgroundColor=none;" vertex="1" parent="57">
                    <mxGeometry x="433" y="249.99999999999997" width="45" height="90" as="geometry"/>
                </mxCell>
                <mxCell id="34" style="edgeStyle=orthogonalEdgeStyle;rounded=0;html=1;entryX=0.5;entryY=0;entryDx=0;entryDy=0;startArrow=box;startFill=0;endArrow=box;endFill=0;labelBackgroundColor=default;" edge="1" parent="57" source="16" target="28">
                    <mxGeometry relative="1" as="geometry"/>
                </mxCell>
                <mxCell id="42" style="rounded=0;html=1;startArrow=box;startFill=0;endArrow=box;endFill=0;entryX=0.21;entryY=1;entryDx=0;entryDy=0;entryPerimeter=0;edgeStyle=orthogonalEdgeStyle;labelBackgroundColor=default;" edge="1" parent="57" source="16" target="39">
                    <mxGeometry relative="1" as="geometry"/>
                </mxCell>
                <mxCell id="16" value="«comp»&lt;br&gt;HX711" style="rounded=0;whiteSpace=wrap;html=1;fillColor=default;labelBackgroundColor=none;" vertex="1" parent="57">
                    <mxGeometry x="485.5" y="249.99999999999997" width="45" height="90" as="geometry"/>
                </mxCell>
                <mxCell id="35" style="edgeStyle=orthogonalEdgeStyle;rounded=0;html=1;entryX=0.5;entryY=0;entryDx=0;entryDy=0;startArrow=box;startFill=0;endArrow=box;endFill=0;labelBackgroundColor=default;" edge="1" parent="57" source="17" target="29">
                    <mxGeometry relative="1" as="geometry"/>
                </mxCell>
                <mxCell id="43" style="edgeStyle=orthogonalEdgeStyle;rounded=0;html=1;entryX=0.43;entryY=1;entryDx=0;entryDy=0;entryPerimeter=0;startArrow=box;startFill=0;endArrow=box;endFill=0;labelBackgroundColor=default;" edge="1" parent="57" source="17" target="39">
                    <mxGeometry relative="1" as="geometry"/>
                </mxCell>
                <mxCell id="17" value="«comp»&lt;br&gt;HX711" style="rounded=0;whiteSpace=wrap;html=1;fillColor=default;labelBackgroundColor=none;" vertex="1" parent="57">
                    <mxGeometry x="540.5" y="249.99999999999997" width="45" height="90" as="geometry"/>
                </mxCell>
                <mxCell id="36" style="edgeStyle=orthogonalEdgeStyle;rounded=0;html=1;entryX=0.5;entryY=0;entryDx=0;entryDy=0;startArrow=box;startFill=0;endArrow=box;endFill=0;labelBackgroundColor=default;" edge="1" parent="57" source="18" target="30">
                    <mxGeometry relative="1" as="geometry"/>
                </mxCell>
                <mxCell id="44" style="edgeStyle=orthogonalEdgeStyle;rounded=0;html=1;entryX=0.64;entryY=1;entryDx=0;entryDy=0;entryPerimeter=0;startArrow=box;startFill=0;endArrow=box;endFill=0;labelBackgroundColor=default;" edge="1" parent="57" source="18" target="39">
                    <mxGeometry relative="1" as="geometry"/>
                </mxCell>
                <mxCell id="18" value="«comp»&lt;br&gt;HX711" style="rounded=0;whiteSpace=wrap;html=1;fillColor=default;labelBackgroundColor=none;" vertex="1" parent="57">
                    <mxGeometry x="620.5" y="249.99999999999997" width="45" height="90" as="geometry"/>
                </mxCell>
                <mxCell id="37" style="edgeStyle=orthogonalEdgeStyle;rounded=0;html=1;entryX=0.5;entryY=0;entryDx=0;entryDy=0;startArrow=box;startFill=0;endArrow=box;endFill=0;labelBackgroundColor=default;" edge="1" parent="57" source="19" target="31">
                    <mxGeometry relative="1" as="geometry"/>
                </mxCell>
                <mxCell id="45" style="edgeStyle=orthogonalEdgeStyle;rounded=0;html=1;entryX=0.783;entryY=0.973;entryDx=0;entryDy=0;entryPerimeter=0;startArrow=box;startFill=0;endArrow=box;endFill=0;labelBackgroundColor=default;" edge="1" parent="57" source="19" target="39">
                    <mxGeometry relative="1" as="geometry"/>
                </mxCell>
                <mxCell id="19" value="«comp»&lt;br&gt;HX711" style="rounded=0;whiteSpace=wrap;html=1;fillColor=default;labelBackgroundColor=none;" vertex="1" parent="57">
                    <mxGeometry x="670.5" y="249.99999999999997" width="45" height="90" as="geometry"/>
                </mxCell>
                <mxCell id="38" style="edgeStyle=orthogonalEdgeStyle;rounded=0;html=1;entryX=0.5;entryY=0;entryDx=0;entryDy=0;startArrow=box;startFill=0;endArrow=box;endFill=0;labelBackgroundColor=default;" edge="1" parent="57" source="20" target="32">
                    <mxGeometry relative="1" as="geometry"/>
                </mxCell>
                <mxCell id="46" style="edgeStyle=orthogonalEdgeStyle;rounded=0;html=1;entryX=0.93;entryY=1;entryDx=0;entryDy=0;entryPerimeter=0;startArrow=box;startFill=0;endArrow=box;endFill=0;labelBackgroundColor=default;" edge="1" parent="57" source="20" target="39">
                    <mxGeometry relative="1" as="geometry"/>
                </mxCell>
                <mxCell id="20" value="«comp»&lt;br&gt;HX711" style="rounded=0;whiteSpace=wrap;html=1;fillColor=default;labelBackgroundColor=none;" vertex="1" parent="57">
                    <mxGeometry x="720.5" y="249.99999999999997" width="45" height="90" as="geometry"/>
                </mxCell>
                <mxCell id="65" style="edgeStyle=elbowEdgeStyle;rounded=0;jumpStyle=arc;html=1;entryX=0.13;entryY=0;entryDx=0;entryDy=0;entryPerimeter=0;startArrow=open;startFill=0;endArrow=none;endFill=0;labelBackgroundColor=default;" edge="1" parent="57" source="27" target="56">
                    <mxGeometry relative="1" as="geometry"/>
                </mxCell>
                <mxCell id="77" value="`F_{11}`" style="edgeLabel;html=1;align=center;verticalAlign=middle;resizable=0;points=[];labelBackgroundColor=default;" vertex="1" connectable="0" parent="65">
                    <mxGeometry x="0.2671" relative="1" as="geometry">
                        <mxPoint x="12" as="offset"/>
                    </mxGeometry>
                </mxCell>
                <mxCell id="27" value="«comp»&lt;br&gt;load&lt;br&gt;cell" style="rounded=0;whiteSpace=wrap;html=1;fillColor=default;labelBackgroundColor=none;" vertex="1" parent="57">
                    <mxGeometry x="433" y="370" width="45" height="50" as="geometry"/>
                </mxCell>
                <mxCell id="66" style="edgeStyle=elbowEdgeStyle;rounded=0;jumpStyle=arc;html=1;entryX=0.5;entryY=0;entryDx=0;entryDy=0;entryPerimeter=0;startArrow=open;startFill=0;endArrow=none;endFill=0;labelBackgroundColor=default;" edge="1" parent="57" source="28" target="56">
                    <mxGeometry relative="1" as="geometry"/>
                </mxCell>
                <mxCell id="78" value="`F_{12}`" style="edgeLabel;html=1;align=center;verticalAlign=middle;resizable=0;points=[];labelBackgroundColor=default;" vertex="1" connectable="0" parent="66">
                    <mxGeometry x="0.3093" y="-1" relative="1" as="geometry">
                        <mxPoint x="12" as="offset"/>
                    </mxGeometry>
                </mxCell>
                <mxCell id="28" value="«comp»&lt;br&gt;load&lt;br&gt;cell" style="rounded=0;whiteSpace=wrap;html=1;fillColor=default;labelBackgroundColor=none;" vertex="1" parent="57">
                    <mxGeometry x="485.5" y="370" width="45" height="50" as="geometry"/>
                </mxCell>
                <mxCell id="67" style="edgeStyle=elbowEdgeStyle;rounded=0;jumpStyle=arc;html=1;entryX=0.88;entryY=0;entryDx=0;entryDy=0;entryPerimeter=0;startArrow=open;startFill=0;endArrow=none;endFill=0;labelBackgroundColor=default;" edge="1" parent="57" source="29" target="56">
                    <mxGeometry relative="1" as="geometry"/>
                </mxCell>
                <mxCell id="79" value="`F_{13}`" style="edgeLabel;html=1;align=center;verticalAlign=middle;resizable=0;points=[];labelBackgroundColor=default;" vertex="1" connectable="0" parent="67">
                    <mxGeometry x="0.3238" relative="1" as="geometry">
                        <mxPoint x="13" as="offset"/>
                    </mxGeometry>
                </mxCell>
                <mxCell id="29" value="«comp»&lt;br&gt;load&lt;br&gt;cell" style="rounded=0;whiteSpace=wrap;html=1;fillColor=default;labelBackgroundColor=none;" vertex="1" parent="57">
                    <mxGeometry x="540.5" y="370" width="45" height="50" as="geometry"/>
                </mxCell>
                <mxCell id="68" style="edgeStyle=elbowEdgeStyle;rounded=0;jumpStyle=arc;html=1;startArrow=open;startFill=0;endArrow=none;endFill=0;labelBackgroundColor=default;" edge="1" parent="57" source="30" target="63">
                    <mxGeometry relative="1" as="geometry"/>
                </mxCell>
                <mxCell id="80" value="`F_{21}`" style="edgeLabel;html=1;align=center;verticalAlign=middle;resizable=0;points=[];labelBackgroundColor=default;" vertex="1" connectable="0" parent="68">
                    <mxGeometry x="0.3778" relative="1" as="geometry">
                        <mxPoint x="13" as="offset"/>
                    </mxGeometry>
                </mxCell>
                <mxCell id="30" value="«comp»&lt;br&gt;load&lt;br&gt;cell" style="rounded=0;whiteSpace=wrap;html=1;fillColor=default;labelBackgroundColor=none;" vertex="1" parent="57">
                    <mxGeometry x="620.5" y="370" width="45" height="50" as="geometry"/>
                </mxCell>
                <mxCell id="69" style="edgeStyle=elbowEdgeStyle;rounded=0;jumpStyle=arc;html=1;entryX=0.5;entryY=0;entryDx=0;entryDy=0;startArrow=open;startFill=0;endArrow=none;endFill=0;labelBackgroundColor=default;" edge="1" parent="57" source="31" target="63">
                    <mxGeometry relative="1" as="geometry"/>
                </mxCell>
                <mxCell id="81" value="`F_{22}`" style="edgeLabel;html=1;align=center;verticalAlign=middle;resizable=0;points=[];labelBackgroundColor=default;" vertex="1" connectable="0" parent="69">
                    <mxGeometry x="0.3907" relative="1" as="geometry">
                        <mxPoint x="13" as="offset"/>
                    </mxGeometry>
                </mxCell>
                <mxCell id="31" value="«comp»&lt;br&gt;load&lt;br&gt;cell" style="rounded=0;whiteSpace=wrap;html=1;fillColor=default;labelBackgroundColor=none;" vertex="1" parent="57">
                    <mxGeometry x="670.5" y="370" width="45" height="50" as="geometry"/>
                </mxCell>
                <mxCell id="70" style="edgeStyle=elbowEdgeStyle;rounded=0;jumpStyle=arc;html=1;startArrow=open;startFill=0;endArrow=none;endFill=0;labelBackgroundColor=default;" edge="1" parent="57" source="32" target="63">
                    <mxGeometry relative="1" as="geometry"/>
                </mxCell>
                <mxCell id="82" value="`F_{23}`" style="edgeLabel;html=1;align=center;verticalAlign=middle;resizable=0;points=[];labelBackgroundColor=default;" vertex="1" connectable="0" parent="70">
                    <mxGeometry x="0.2667" relative="1" as="geometry">
                        <mxPoint x="12" y="5" as="offset"/>
                    </mxGeometry>
                </mxCell>
                <mxCell id="32" value="«comp»&lt;br&gt;load&lt;br&gt;cell" style="rounded=0;whiteSpace=wrap;html=1;fillColor=default;labelBackgroundColor=none;" vertex="1" parent="57">
                    <mxGeometry x="720.5" y="370" width="45" height="50" as="geometry"/>
                </mxCell>
                <mxCell id="39" value="" style="rounded=0;whiteSpace=wrap;html=1;labelBackgroundColor=default;fillColor=default;points=[[0,0,0,0,0],[0,0.27,0,0,0],[0,0.53,0,0,0],[0,0.73,0,0,0],[0,1,0,0,0],[0.07,1,0,0,0],[0.14,1,0,0,0],[0.21,1,0,0,0],[0.25,0,0,0,0],[0.29,1,0,0,0],[0.36,1,0,0,0],[0.43,1,0,0,0],[0.5,0,0,0,0],[0.5,1,0,0,0],[0.57,1,0,0,0],[0.64,1,0,0,0],[0.71,1,0,0,0],[0.75,0,0,0,0],[0.79,1,0,0,0],[0.86,1,0,0,0],[0.93,1,0,0,0],[1,0,0,0,0],[1,0.27,0,0,0],[1,0.53,0,0,0],[1,0.73,0,0,0],[1,1,0,0,0]];" vertex="1" parent="57">
                    <mxGeometry x="430.5" y="215" width="335" height="5" as="geometry"/>
                </mxCell>
                <mxCell id="56" value="" style="rounded=0;whiteSpace=wrap;html=1;labelBackgroundColor=default;fillColor=default;points=[[0,0,0,0,0],[0,0.25,0,0,0],[0,0.5,0,0,0],[0,0.75,0,0,0],[0,1,0,0,0],[0.13,0,0,0,0],[0.17,0,0,0,0],[0.25,0,0,0,0],[0.25,1,0,0,0],[0.33,0,0,0,0],[0.38,0,0,0,0],[0.5,0,0,0,0],[0.5,1,0,0,0],[0.63,0,0,0,0],[0.67,0,0,0,0],[0.75,0,0,0,0],[0.75,1,0,0,0],[0.83,0,0,0,0],[0.88,0,0,0,0],[1,0,0,0,0],[1,0.25,0,0,0],[1,0.5,0,0,0],[1,0.75,0,0,0],[1,1,0,0,0]];" vertex="1" parent="57">
                    <mxGeometry x="433" y="460" width="152" height="5" as="geometry"/>
                </mxCell>
                <mxCell id="63" value="" style="rounded=0;whiteSpace=wrap;html=1;labelBackgroundColor=default;fillColor=default;" vertex="1" parent="57">
                    <mxGeometry x="625" y="460" width="144.5" height="5" as="geometry"/>
                </mxCell>
            </root>
        </mxGraphModel>
    </diagram>
</mxfile>
